HIERARCHY
ROOT hip
{
  OFFSET 0 0 0
  CHANNELS 6 Xposition Yposition Zposition Zrotation Yrotation Xrotation
  JOINT abdomen
  {
    OFFSET 0 20.6881 -0.73152
    CHANNELS 3 Zrotation Xrotation Yrotation
    JOINT chest
    {
      OFFSET 0 11.7043 -0.48768
      CHANNELS 3 Zrotation Xrotation Yrotation
      JOINT neck
      {
        OFFSET 0 22.1894 -2.19456
        CHANNELS 3 Zrotation Xrotation Yrotation
        JOINT head
        {
          OFFSET -0.24384 7.07133 1.2192
          CHANNELS 3 Zrotation Xrotation Yrotation
          JOINT leftEye
          {
            OFFSET 4.14528 8.04674 8.04672
            CHANNELS 3 Zrotation Xrotation Yrotation
            End Site
            {
              OFFSET 1 0 0
            }
          }
          JOINT rightEye
          {
            OFFSET -3.6576 8.04674 8.04672
            CHANNELS 3 Zrotation Xrotation Yrotation
            End Site
            {
              OFFSET 1 0 0
            }
          }
        }
      }
      JOINT rCollar
      {
        OFFSET -2.68224 19.2634 -4.8768
        CHANNELS 3 Zrotation Xrotation Yrotation
        JOINT rShldr
        {
          OFFSET -8.77824 -1.95073 1.46304
          CHANNELS 3 Zrotation Xrotation Yrotation
          JOINT rForeArm
          {
            OFFSET -28.1742 -1.7115 0.48768
            CHANNELS 3 Zrotation Xrotation Yrotation
            JOINT rHand
            {
              OFFSET -22.5879 0.773209 7.07136
              CHANNELS 3 Zrotation Xrotation Yrotation
              JOINT rThumb1
              {
                OFFSET -1.2192 -0.487915 3.41376
                CHANNELS 3 Zrotation Xrotation Yrotation
                JOINT rThumb2
                {
                  OFFSET -3.37035 -0.52449 3.41376
                  CHANNELS 3 Zrotation Xrotation Yrotation
                  End Site
                  {
                    OFFSET -1.78271 -1.18214 1.43049
                  }
                }
              }
              JOINT rIndex1
              {
                OFFSET -7.75947 0.938293 5.60832
                CHANNELS 3 Zrotation Xrotation Yrotation
                JOINT rIndex2
                {
                  OFFSET -2.54057 -0.884171 1.56538
                  CHANNELS 3 Zrotation Xrotation Yrotation
                  End Site
                  {
                    OFFSET -1.62519 -0.234802 1.16502
                  }
                }
              }
              JOINT rMid1
              {
                OFFSET -8.24714 1.18213 3.41376
                CHANNELS 3 Zrotation Xrotation Yrotation
                JOINT rMid2
                {
                  OFFSET -3.10165 -0.590103 1.0647
                  CHANNELS 3 Zrotation Xrotation Yrotation
                  End Site
                  {
                    OFFSET -2.48547 -0.328903 0.83742
                  }
                }
              }
              JOINT rRing1
              {
                OFFSET -8.82822 0.546677 1.51678
                CHANNELS 3 Zrotation Xrotation Yrotation
                JOINT rRing2
                {
                  OFFSET -2.60934 -0.819778 -0.0198488
                  CHANNELS 3 Zrotation Xrotation Yrotation
                  End Site
                  {
                    OFFSET -2.33842 -0.294052 0.168128
                  }
                }
              }
              JOINT rPinky1
              {
                OFFSET -8.27202 -0.0477905 -0.4584
                CHANNELS 3 Zrotation Xrotation Yrotation
                JOINT rPinky2
                {
                  OFFSET -1.82734 -0.647385 -0.700984
                  CHANNELS 3 Zrotation Xrotation Yrotation
                  End Site
                  {
                    OFFSET -1.69225 -0.51767 -0.607171
                  }
                }
              }
            }
          }
        }
      }
      JOINT lCollar
      {
        OFFSET 2.68224 19.2634 -4.8768
        CHANNELS 3 Zrotation Xrotation Yrotation
        JOINT lShldr
        {
          OFFSET 8.77824 -1.95073 1.46304
          CHANNELS 3 Zrotation Xrotation Yrotation
          JOINT lForeArm
          {
            OFFSET 28.1742 -1.7115 0.48768
            CHANNELS 3 Zrotation Xrotation Yrotation
            JOINT lHand
            {
              OFFSET 22.5879 0.773209 7.07136
              CHANNELS 3 Zrotation Xrotation Yrotation
              JOINT lThumb1
              {
                OFFSET 1.2192 -0.487915 3.41376
                CHANNELS 3 Zrotation Xrotation Yrotation
                JOINT lThumb2
                {
                  OFFSET 3.37035 -0.52449 3.41376
                  CHANNELS 3 Zrotation Xrotation Yrotation
                  End Site
                  {
                    OFFSET 1.78271 -1.18214 1.43049
                  }
                }
              }
              JOINT lIndex1
              {
                OFFSET 7.75947 0.938293 5.60832
                CHANNELS 3 Zrotation Xrotation Yrotation
                JOINT lIndex2
                {
                  OFFSET 2.54057 -0.884171 1.56538
                  CHANNELS 3 Zrotation Xrotation Yrotation
                  End Site
                  {
                    OFFSET 1.62519 -0.234802 1.16502
                  }
                }
              }
              JOINT lMid1
              {
                OFFSET 8.24714 1.18213 3.41376
                CHANNELS 3 Zrotation Xrotation Yrotation
                JOINT lMid2
                {
                  OFFSET 3.10165 -0.590103 1.0647
                  CHANNELS 3 Zrotation Xrotation Yrotation
                  End Site
                  {
                    OFFSET 2.48547 -0.328903 0.83742
                  }
                }
              }
              JOINT lRing1
              {
                OFFSET 8.82822 0.546677 1.51678
                CHANNELS 3 Zrotation Xrotation Yrotation
                JOINT lRing2
                {
                  OFFSET 2.60934 -0.819778 -0.0198488
                  CHANNELS 3 Zrotation Xrotation Yrotation
                  End Site
                  {
                    OFFSET 2.33842 -0.294052 0.168128
                  }
                }
              }
              JOINT lPinky1
              {
                OFFSET 8.27202 -0.0477905 -0.4584
                CHANNELS 3 Zrotation Xrotation Yrotation
                JOINT lPinky2
                {
                  OFFSET 1.82734 -0.647385 -0.700984
                  CHANNELS 3 Zrotation Xrotation Yrotation
                  End Site
                  {
                    OFFSET 1.69225 -0.51767 -0.607171
                  }
                }
              }
            }
          }
        }
      }
    }
  }
  JOINT rButtock
  {
    OFFSET -8.77824 4.35084 1.2192
    CHANNELS 3 Zrotation Xrotation Yrotation
    JOINT rThigh
    {
      OFFSET 0 -1.70687 -2.19456
      CHANNELS 3 Zrotation Xrotation Yrotation
      JOINT rShin
      {
        OFFSET 0 -36.8199 0.73152
        CHANNELS 3 Zrotation Xrotation Yrotation
        JOINT rFoot
        {
          OFFSET 0.73152 -45.1104 -5.12064
          CHANNELS 3 Zrotation Xrotation Yrotation
          End Site
          {
            OFFSET -1.1221 -3.69964 12.103
          }
        }
      }
    }
  }
  JOINT lButtock
  {
    OFFSET 8.77824 4.35084 1.2192
    CHANNELS 3 Zrotation Xrotation Yrotation
    JOINT lThigh
    {
      OFFSET 0 -1.70687 -2.19456
      CHANNELS 3 Zrotation Xrotation Yrotation
      JOINT lShin
      {
        OFFSET 0 -36.8199 0.73152
        CHANNELS 3 Zrotation Xrotation Yrotation
        JOINT lFoot
        {
          OFFSET -0.73152 -45.1104 -5.12064
          CHANNELS 3 Zrotation Xrotation Yrotation
          End Site
          {
            OFFSET 1.1221 -3.69964 12.103
          }
        }
      }
    }
  }
}
MOTION
Frames:	8
Frame Time:	0.00833333
-135.54 85.1237 21.5511 0.0 0.0 0.0 0.43597 -0.0238513 0.01282 0.121274 -0.0396248 0.0210492 -8.27432e-15 0.0 -5.59082e-17 -2.47829e-14 3.18055e-15 -1.77043e-16 -0.0 0.0 0.0 -0.0 0.0 0.0 -3.97659e-15 9.86158e-17 1.98785e-16 -8.55754e-14 2.5345e-15 -3.97569e-16 -1.47637e-12 5.3314e-13 1.59028e-14 -1.70348e-11 -6.95746e-16 -1.81292e-13 -4.01601e-11 1.1518e-12 -3.33958e-13 -6.93731e-11 1.99103e-12 -5.79656e-13 -4.01549e-11 1.15414e-12 -3.4668e-13 7.73091 5.47488 0.417314 -4.01608e-11 1.15136e-12 -3.37139e-13 2.90554 0.965183 0.102902 -4.01603e-11 1.15156e-12 -3.36344e-13 10.2786 0.731801 0.0259123 -4.01658e-11 1.15375e-12 -3.27597e-13 2.22167 -0.733487 -0.20892 -4.17386e-15 9.95865e-17 -1.98785e-16 -8.78171e-14 2.50344e-15 -1.78906e-15 -1.49769e-12 -3.59601e-13 -3.18055e-15 -1.70161e-11 8.85983e-13 -1.46306e-13 -4.01588e-11 1.13978e-12 -3.40319e-13 -6.93472e-11 1.96876e-12 -5.78066e-13 -4.01629e-11 1.14063e-12 -3.30778e-13 -7.73091 5.47488 -0.417314 -4.01576e-11 1.13953e-12 -3.40319e-13 -2.90554 0.965183 -0.102902 -4.01646e-11 1.13933e-12 -3.39524e-13 -10.2786 0.731801 -0.0259123 -4.01519e-11 1.14261e-12 -3.435e-13 -2.22167 -0.733487 0.20892 -2.03217e-16 0.0 -3.88251e-19 0.652004 -4.71109 -0.0694778 -0.000844186 2.99807 0.00381794 -0.326398 1.72325 0.0697902 2.03217e-16 0.0 3.88251e-19 0.0331633 -2.68025 0.0231595 0.00579481 -0.679751 0.0505406 0.296135 3.3702 -0.0966762
-127.163 83.61 8.99409 -173.307 50.9589 -164.622 2.91746 -0.882615 3.0016 -1.49085 -3.95276 0.767134 3.33392 1.27619 1.75734 -2.04872 0.584828 3.29225 -0.0 0.0 0.0 -0.0 0.0 0.0 3.60126e-16 -5.55505e-15 3.13124e-13 19.9704 10.1411 -3.40539 -4.22402 -1.92007 6.59663 0.0226164 -3.33827 -0.466294 1.92292e-10 1.21302e-09 1.14831e-09 3.2009e-10 2.10718e-09 1.98908e-09 1.92297e-10 1.21302e-09 1.1483e-09 7.73091 5.47488 0.417314 1.92292e-10 1.21302e-09 1.14831e-09 2.90554 0.965183 0.102902 1.92295e-10 1.21302e-09 1.1483e-09 10.2786 0.731801 0.0259123 1.92287e-10 1.21302e-09 1.14831e-09 2.22167 -0.733487 -0.20892 2.30823e-16 -5.55694e-15 3.12765e-13 -19.4342 5.08465 4.16961 5.4751 -2.80215 -8.18264 -0.00255906 1.12225 -0.157612 -1.50338e-09 2.80882e-09 2.03894e-09 -2.59403e-09 4.88493e-09 3.53859e-09 -1.50338e-09 2.80882e-09 2.03895e-09 -7.73091 5.47488 -0.417314 -1.50338e-09 2.80881e-09 2.03894e-09 -2.90554 0.965183 -0.102902 -1.50338e-09 2.80882e-09 2.03894e-09 -10.2786 0.731801 -0.0259123 -1.50337e-09 2.80882e-09 2.03894e-09 -2.22167 -0.733487 0.20892 -2.03217e-16 0.0 -3.88251e-19 7.07028 -4.12408 9.40551 -0.101922 4.55814 -0.549734 -0.915455 -16.2843 -7.81055 2.03217e-16 0.0 3.88251e-19 0.487651 -4.26742 -7.5225 -0.00986775 0.298867 -0.0823193 0.166503 0.173984 1.32507
-127.093 83.6036 8.89894 -173.322 51.0251 -164.655 5.63738 -1.77931 6.15978 -3.07738 -8.08727 1.56727 6.76718 2.6154 3.616 -4.2862 1.19564 6.76865 -0.0 0.0 0.0 -0.0 0.0 0.0 4.47283e-15 -1.65524e-14 6.58154e-13 42.4694 20.748 -7.3751 -8.2133 -3.86587 13.5957 -0.0129974 -6.87755 -0.96607 4.35717e-10 2.54275e-09 2.44494e-09 7.27055e-10 4.41722e-09 4.23489e-09 4.35722e-10 2.54275e-09 2.44492e-09 7.73091 5.47488 0.417314 4.35718e-10 2.54275e-09 2.44493e-09 2.90554 0.965183 0.102902 4.35724e-10 2.54275e-09 2.44493e-09 10.2786 0.731801 0.0259123 4.35713e-10 2.54275e-09 2.44494e-09 2.22167 -0.733487 -0.20892 4.41689e-15 -1.65575e-14 6.57834e-13 -40.7986 10.3677 8.68559 10.4044 -5.57608 -16.8987 0.00145229 2.3069 -0.324193 -3.12613e-09 5.90438e-09 4.28034e-09 -5.3941e-09 1.02686e-08 7.42865e-09 -3.12614e-09 5.90437e-09 4.28035e-09 -7.73091 5.47488 -0.417314 -3.12614e-09 5.90437e-09 4.28034e-09 -2.90554 0.965183 -0.102902 -3.12614e-09 5.90437e-09 4.28034e-09 -10.2786 0.731801 -0.0259123 -3.12612e-09 5.90437e-09 4.28034e-09 -2.22167 -0.733487 0.20892 -2.03217e-16 0.0 -3.88251e-19 13.6445 -3.42087 19.4002 -0.175821 6.20632 -1.13851 -7.84237 -34.1357 -18.8325 2.03217e-16 0.0 3.88251e-19 0.518299 -5.80925 -15.5362 -0.021429 1.33318 -0.222758 0.201995 -3.19739 2.83479
-126.989 83.5958 8.81144 -173.268 51.1044 -164.673 8.14822 -2.57186 8.98723 -4.40384 -11.7708 2.30227 9.76684 3.81414 5.28245 -6.34676 1.73133 9.88079 -0.0 0.0 0.0 -0.0 0.0 0.0 9.03355e-15 -1.68624e-14 9.38975e-13 63.9775 29.9594 -11.6275 -11.37 -5.45543 19.8725 -0.0972875 -10.0121 -1.41811 6.57196e-10 3.63676e-09 3.44559e-09 1.09902e-09 6.31757e-09 5.96841e-09 6.57201e-10 3.63676e-09 3.44558e-09 7.73091 5.47488 0.417314 6.57198e-10 3.63676e-09 3.44559e-09 2.90554 0.965183 0.102902 6.57207e-10 3.63676e-09 3.44559e-09 10.2786 0.731801 0.0259123 6.57194e-10 3.63676e-09 3.44559e-09 2.22167 -0.733487 -0.20892 9.04019e-15 -1.687e-14 9.38693e-13 -60.5686 14.9255 12.9019 14.0877 -7.72205 -24.7578 0.0108726 3.36663 -0.473563 -4.42981e-09 8.42417e-09 6.1175e-09 -7.6434e-09 1.46509e-08 1.06169e-08 -4.42981e-09 8.42417e-09 6.11751e-09 -7.73091 5.47488 -0.417314 -4.42981e-09 8.42417e-09 6.1175e-09 -2.90554 0.965183 -0.102902 -4.42981e-09 8.42417e-09 6.1175e-09 -10.2786 0.731801 -0.0259123 -4.4298e-09 8.42417e-09 6.1175e-09 -2.22167 -0.733487 0.20892 -2.03217e-16 0.0 -3.88251e-19 19.3263 -2.74556 28.3167 -0.21289 7.6757 -1.66655 -22.3106 -47.2708 -34.5392 2.03217e-16 0.0 3.88251e-19 0.176961 -6.97201 -22.7282 -0.0275707 2.25606 -0.348298 0.384432 -6.2018 4.19281
-126.909 83.5862 8.70362 -173.318 51.2354 -164.729 9.94993 -3.13048 10.9804 -5.30154 -14.3348 2.83369 11.8461 4.67517 6.45868 -7.82496 2.10104 12.0785 -0.0 0.0 0.0 -0.0 0.0 0.0 1.47143e-14 9.54632e-15 1.05927e-12 79.9877 36.119 -15.2501 -13.3549 -6.44545 24.2647 -0.184165 -12.1376 -1.73207 8.23811e-10 4.14151e-09 3.70633e-09 1.38347e-09 7.19369e-09 6.42117e-09 8.23817e-10 4.14151e-09 3.70631e-09 7.73091 5.47488 0.417314 8.23813e-10 4.14151e-09 3.70633e-09 2.90554 0.965183 0.102902 8.23823e-10 4.14151e-09 3.70632e-09 10.2786 0.731801 0.0259123 8.23809e-10 4.14151e-09 3.70632e-09 2.22167 -0.733487 -0.20892 1.47566e-14 9.53759e-15 1.05903e-12 -74.7395 17.9822 15.9952 16.2833 -8.95328 -30.2733 0.0208048 4.1142 -0.579218 -4.93579e-09 9.50457e-09 6.94406e-09 -8.51579e-09 1.65295e-08 1.20508e-08 -4.93579e-09 9.50456e-09 6.94407e-09 -7.73091 5.47488 -0.417314 -4.93579e-09 9.50456e-09 6.94406e-09 -2.90554 0.965183 -0.102902 -4.93579e-09 9.50456e-09 6.94406e-09 -10.2786 0.731801 -0.0259123 -4.93577e-09 9.50456e-09 6.94406e-09 -2.22167 -0.733487 0.20892 -2.03217e-16 0.0 -3.88251e-19 23.1857 -2.2437 34.5629 -0.222563 8.70031 -2.03467 -38.8139 -53.253 -50.6835 2.03217e-16 0.0 3.88251e-19 -0.244876 -7.60323 -27.771 -0.0297631 2.90042 -0.436296 0.596607 -8.30647 5.14155
-126.842 83.5788 8.61326 -173.295 51.3621 -164.695 10.6803 -3.37841 11.8051 -5.71793 -15.3385 3.05025 12.7199 5.09602 6.94436 -8.42666 2.1989 12.9924 -0.0 0.0 0.0 -0.0 0.0 0.0 2.80861e-14 9.9321e-14 9.51633e-13 86.5528 38.3716 -16.8704 -14.08 -6.79673 25.9748 -0.220033 -12.8397 -1.83765 9.27862e-10 3.83339e-09 2.76493e-09 1.57134e-09 6.65628e-09 4.79347e-09 9.27872e-10 3.83339e-09 2.76491e-09 7.73091 5.47488 0.417314 9.27863e-10 3.83339e-09 2.76493e-09 2.90554 0.965183 0.102902 9.27873e-10 3.83339e-09 2.76492e-09 10.2786 0.731801 0.0259123 9.2786e-10 3.83339e-09 2.76492e-09 2.22167 -0.733487 -0.20892 2.81245e-14 9.93134e-14 9.51418e-13 -80.3144 19.1813 17.2566 17.0501 -9.34935 -32.3997 0.0255987 4.4198 -0.622491 -4.27628e-09 8.46572e-09 6.32727e-09 -7.37608e-09 1.47225e-08 1.09786e-08 -4.27628e-09 8.46572e-09 6.32727e-09 -7.73091 5.47488 -0.417314 -4.27628e-09 8.46571e-09 6.32726e-09 -2.90554 0.965183 -0.102902 -4.27628e-09 8.46572e-09 6.32727e-09 -10.2786 0.731801 -0.0259123 -4.27627e-09 8.46572e-09 6.32726e-09 -2.22167 -0.733487 0.20892 -2.03217e-16 0.0 -3.88251e-19 24.6782 -1.98364 37.0735 -0.22303 9.10681 -2.17492 -46.6573 -54.592 -58.0853 2.03217e-16 0.0 3.88251e-19 -0.4389 -7.74136 -29.7604 -0.0308794 3.15456 -0.471582 0.692829 -9.15443 5.4702
-126.745 83.5688 8.55186 -173.068 51.4591 -164.52 10.6253 -3.41011 11.7936 -5.81473 -15.2292 3.03322 12.75 5.20428 6.93456 -8.38773 2.10976 12.9887 -0.0 0.0 0.0 -0.0 0.0 0.0 4.66601e-14 2.33121e-13 6.81331e-13 85.8633 37.9585 -16.6888 -13.9873 -6.74834 25.7574 -0.207781 -12.5262 -1.79099 9.86546e-10 2.94408e-09 9.72777e-10 1.68899e-09 5.10823e-09 1.69341e-09 9.86561e-10 2.94408e-09 9.72765e-10 7.73091 5.47488 0.417314 9.86546e-10 2.94408e-09 9.72782e-10 2.90554 0.965183 0.102902 9.86554e-10 2.94408e-09 9.72775e-10 10.2786 0.731801 0.0259123 9.86544e-10 2.94408e-09 9.72777e-10 2.22167 -0.733487 -0.20892 4.66662e-14 2.33116e-13 6.81148e-13 -79.5696 19.1205 17.1355 16.9311 -9.2734 -32.0828 0.0253258 4.40997 -0.621094 -2.78661e-09 5.91808e-09 4.68086e-09 -4.80317e-09 1.02915e-08 8.11889e-09 -2.78661e-09 5.91808e-09 4.68087e-09 -7.73091 5.47488 -0.417314 -2.78661e-09 5.91808e-09 4.68086e-09 -2.90554 0.965183 -0.102902 -2.78661e-09 5.91808e-09 4.68086e-09 -10.2786 0.731801 -0.0259123 -2.7866e-09 5.91808e-09 4.68085e-09 -2.22167 -0.733487 0.20892 -2.03217e-16 0.0 -3.88251e-19 24.5259 -1.88629 36.9172 -0.223643 9.07206 -2.15107 -45.8252 -54.5903 -57.2451 2.03217e-16 0.0 3.88251e-19 -0.403878 -7.59645 -29.5611 -0.0322198 3.12999 -0.469135 0.670807 -9.1093 5.34865
-126.651 83.5563 8.46442 -172.997 51.5893 -164.457 10.2495 -3.35829 11.4399 -5.75784 -14.6722 2.92375 12.4283 5.15071 6.72235 -8.0928 2.03318 12.6195 -0.0 0.0 0.0 -0.0 0.0 0.0 5.75179e-14 3.42995e-13 3.51098e-13 82.2576 36.4835 -15.7889 -13.5646 -6.53776 24.7647 -0.178552 -11.8262 -1.68686 1.00429e-09 1.80291e-09 -8.93691e-10 1.73707e-09 3.12332e-09 -1.53574e-09 1.00431e-09 1.8029e-09 -8.93703e-10 7.73091 5.47488 0.417314 1.00429e-09 1.8029e-09 -8.93685e-10 2.90554 0.965183 0.102902 1.00429e-09 1.8029e-09 -8.93691e-10 10.2786 0.731801 0.0259123 1.00429e-09 1.80291e-09 -8.93689e-10 2.22167 -0.733487 -0.20892 5.74836e-14 3.42993e-13 3.50939e-13 -76.3125 18.5261 16.4635 16.4558 -9.00689 -30.7918 0.0230649 4.28194 -0.602949 -1.04279e-09 2.93345e-09 2.66823e-09 -1.79207e-09 5.09998e-09 4.62373e-09 -1.04279e-09 2.93345e-09 2.66824e-09 -7.73091 5.47488 -0.417314 -1.04279e-09 2.93345e-09 2.66823e-09 -2.90554 0.965183 -0.102902 -1.04279e-09 2.93345e-09 2.66823e-09 -10.2786 0.731801 -0.0259123 -1.04278e-09 2.93346e-09 2.66822e-09 -2.22167 -0.733487 0.20892 -2.03217e-16 0.0 -3.88251e-19 23.7163 -1.85412 35.7014 -0.223961 8.85579 -2.06021 -41.4823 -54.0348 -53.0651 2.03217e-16 0.0 3.88251e-19 -0.287078 -7.34756 -28.4907 -0.0333606 2.99445 -0.45145 0.610879 -8.72394 5.08028
